<svg xmlns="http://www.w3.org/2000/svg" enable-background="new 0 0 489.4 64.2" viewBox="0 0 489.4 64.2"><style>.logoprim{fill:#8e4391}.logobase{fill:#3e1f4b}</style><linearGradient id="logo_grad_1" x1="26.574" x2="26.574" y1="55.13" y2="55.13" gradientUnits="userSpaceOnUse"><stop offset="0" stop-color="#3e1f4b"/><stop offset=".725" stop-color="#8e4391"/></linearGradient><path fill="url(#logo_grad_1)" d="M26.6 55.1"/><linearGradient id="logo_grad_2" x1="6.108" x2="54.646" y1="58.288" y2="17.56" gradientUnits="userSpaceOnUse"><stop offset="0" stop-color="#3e1f4b"/><stop offset=".725" stop-color="#8e4391"/></linearGradient><path fill="url(#logo_grad_2)" d="M58.5 22.2l-24.2-21c-1.8-1.5-4.4-1.6-6.2-.1l-26.2 21C.7 23 0 24.4 0 25.9v18.9c0 9.6 7.8 17.3 17.3 17.3h15.3c-4.4-2.5-6.9-6.4-8.3-9.7h-7c-4.2 0-7.7-3.4-7.7-7.7V28.2l21.2-17 19.5 16.9v16.6c0 4.2-3.4 7.7-7.7 7.7s-7.7-3.4-7.7-7.7v-5.6c0-2.7-2.2-4.8-4.8-4.8s-4.8 2.2-4.8 4.8v5.6c0 .9.1 1.8.2 2.7.8 4 4.2 14 17.3 14.6 9.5-.1 17.2-7.8 17.2-17.3V25.9c.1-1.5-.5-2.8-1.5-3.7z"/><g><path d="M52.7 17.2l-8.5 5.4 6.3 5.4v16.6c0 4.2-3.4 7.7-7.7 7.7s-7.7-3.4-7.7-7.7V39c0-2.7-2.2-4.8-4.8-4.8s-4.8 2.2-4.8 4.8v5.6c0 .9.1 1.8.2 2.7.8 4 4.2 14 17.3 14.6 9.5-.1 17.2-7.8 17.2-17.3V25.9c0-1.4-.6-2.7-1.7-3.7l-5.8-5z" class="logoprim"/></g><g><path d="M94 26.8c4.5 0 7.1 1.8 9.2 4.4l-1.9 1.7c-1.9-2.6-4.3-3.6-7.1-3.6-6.1 0-9.8 4.9-9.8 11.1 0 6.3 3.7 11.2 9.8 11.2 2.9 0 5.2-1.1 7.1-3.7l1.9 1.7c-2.1 2.7-4.7 4.5-9.2 4.5-7.7 0-12.7-6.1-12.7-13.7 0-7.5 5-13.6 12.7-13.6zM108 40.5c0-7.6 4.9-13.7 12.5-13.7 7.7 0 12.6 6.1 12.6 13.7s-4.9 13.7-12.6 13.7c-7.6 0-12.5-6.1-12.5-13.7zm22.1 0c0-5.8-3.4-11.1-9.6-11.1-6.1 0-9.5 5.4-9.5 11.1 0 5.8 3.5 11.2 9.5 11.2 6.2 0 9.6-5.3 9.6-11.2zM171.5 35.3c0-3.7-1.6-5.9-5.2-5.9-2.8 0-6 2.1-7.5 4.4v19.8h-2.9V35.3c0-3.7-1.5-5.9-5.2-5.9-2.8 0-5.9 2.1-7.5 4.5v19.7h-2.8V27.5h2.8v3.9c1.1-1.7 4.6-4.6 8.4-4.6 4.1 0 6.2 2.4 6.9 4.9 1.5-2.4 5-4.9 8.7-4.9 4.8 0 7.1 2.7 7.1 7.9v18.8h-2.8V35.3zM183 63.5v-36h2.8v4.1c1.8-2.6 5.2-4.8 9.1-4.8 7 0 11.7 5.3 11.7 13.7 0 8.3-4.7 13.7-11.7 13.7-3.7 0-7-1.9-9.1-4.9v14.2H183zm11.4-34.1c-3.6 0-7.1 2.2-8.6 4.6v12.9c1.5 2.5 5 4.8 8.6 4.8 5.8 0 9.1-4.9 9.1-11.2s-3.2-11.1-9.1-11.1zM230.4 50.5c-2.3 2.5-5.2 3.7-8.9 3.7-4.5 0-9.1-3.1-9.1-8.7 0-5.7 4.6-8.6 9.1-8.6 3.6 0 6.6 1.2 8.9 3.7v-5.3c0-3.9-3.1-6-7-6-3.2 0-5.8 1.1-8.2 3.8l-1.6-1.9c2.7-2.9 5.7-4.4 10.1-4.4 5.3 0 9.5 2.5 9.5 8.4v18.4h-2.8v-3.1zm0-7.8c-1.8-2.4-4.8-3.6-7.9-3.6-4.3 0-7.1 2.8-7.1 6.5s2.8 6.4 7.1 6.4c3.1 0 6.1-1.2 7.9-3.6v-5.7zM242 27.5h2.8V32c2.2-2.9 5.2-5 8.8-5v3c-.5-.1-.9-.1-1.4-.1-2.6 0-6.2 2.4-7.4 4.6v19H242v-26zM270.2 26.8c7.9 0 12.3 6.3 12.3 13.8v.8h-21.8c.3 5.7 4.1 10.4 10.2 10.4 3.3 0 6.3-1.2 8.5-3.6l1.5 1.8c-2.6 2.7-5.9 4.2-10.2 4.2-7.6 0-13.1-5.7-13.1-13.7 0-7.6 5.4-13.7 12.6-13.7zm-9.5 12.4h19c-.1-4.4-3-9.9-9.5-9.9-6.2 0-9.3 5.4-9.5 9.9zM320.9 35.3c0-3.7-1.6-5.9-5.2-5.9-2.8 0-6 2.1-7.5 4.4v19.8h-2.9V35.3c0-3.7-1.5-5.9-5.2-5.9-2.8 0-5.9 2.1-7.5 4.5v19.7h-2.8V27.5h2.8v3.9c1.1-1.7 4.6-4.6 8.4-4.6 4.1 0 6.2 2.4 6.9 4.9 1.5-2.4 5-4.9 8.6-4.9 4.8 0 7.1 2.7 7.1 7.9v18.8h-2.8V35.3zM333.5 61.7c1.7 0 2.9-.7 3.9-3.2l2.1-4.6-11-26.3h3.1l9.5 22.8 9.4-22.8h3.2l-13.5 31.8c-1.4 3.3-3.6 4.9-6.7 4.9-.9 0-2.1-.2-2.8-.4l.5-2.6c.6.2 1.6.4 2.3.4z" class="logobase"/><path d="M390 37.7c0-2-1-3.5-3.5-3.5-2.3 0-3.9 1.5-4.7 2.5v16.9h-8.3V37.7c0-2-.9-3.5-3.5-3.5-2.2 0-3.8 1.5-4.6 2.5v16.9h-8.3V27.5h8.3v3.2c1.1-1.5 4.5-3.8 8.6-3.8 3.7 0 6.3 1.6 7.4 4.6 1.5-2.3 4.9-4.6 9-4.6 4.8 0 7.8 2.5 7.8 7.8v18.9H390V37.7zM402.7 40.5c0-7.4 5.4-13.7 14.2-13.7 9 0 14.3 6.3 14.3 13.7s-5.3 13.7-14.3 13.7c-8.9 0-14.2-6.3-14.2-13.7zm19.9 0c0-3.5-2.1-6.3-5.7-6.3s-5.6 2.9-5.6 6.3c0 3.5 2 6.4 5.6 6.4 3.7 0 5.7-2.9 5.7-6.4zM432 27.5h8.8l5.9 16.5 5.9-16.5h8.8l-10.3 26.1h-8.9L432 27.5zM476 26.8c7.7 0 13.4 5.7 13.4 14.5v1.8h-18.6c.5 2.4 2.8 4.6 6.6 4.6 2.3 0 4.9-.9 6.4-2.2l3.5 5.2c-2.6 2.3-6.9 3.5-10.9 3.5-8.1 0-14.3-5.2-14.3-13.7 0-7.6 5.8-13.7 13.9-13.7zm-5.3 11h10.8c-.2-1.8-1.6-4.5-5.4-4.5-3.7 0-5.1 2.6-5.4 4.5z" class="logoprim"/></g><g><path d="M26.6 55.1" class="logoprim"/></g></svg>