<?xml version="1.0" encoding="utf-8"?>
<!-- Generator: Adobe Illustrator 30.2.0, SVG Export Plug-In . SVG Version: 9.03 Build 0)  -->
<svg version="1.1" id="Layer_1" xmlns="http://www.w3.org/2000/svg" xmlns:xlink="http://www.w3.org/1999/xlink" x="0px" y="0px"
	 viewBox="280 770 1440 460" style="enable-background:new 280 770 1440 460;" xml:space="preserve">
<style type="text/css">
	.st0{fill:#0E3C54;}
	.st1{fill:#FFFFFF;}
	.st2{fill:#F16B21;}
	.st3{display:none;}
	.st4{display:inline;fill:#FFFFFF;}
	.st5{fill:#F06C21;}
</style>
<rect x="0" y="774" class="st0" width="2000" height="450"/>
<g>
	<path class="st1" d="M521.83,1031.15v-56.94h18.45c6.99,0,11.55,0.29,13.67,0.85c3.26,0.85,5.99,2.71,8.2,5.57
		c2.2,2.86,3.3,6.56,3.3,11.09c0,3.5-0.64,6.43-1.9,8.82c-1.27,2.38-2.88,4.25-4.83,5.61c-1.96,1.36-3.94,2.26-5.96,2.7
		c-2.74,0.54-6.72,0.82-11.92,0.82h-7.5v21.48H521.83z M533.33,983.84V1000h6.29c4.53,0,7.56-0.3,9.09-0.89
		c1.53-0.59,2.72-1.53,3.59-2.8c0.87-1.27,1.3-2.74,1.3-4.43c0-2.07-0.61-3.78-1.83-5.13c-1.22-1.35-2.76-2.19-4.62-2.52
		c-1.37-0.26-4.13-0.39-8.27-0.39H533.33z"/>
	<path class="st1" d="M642.6,1031.15h-12.51l-4.97-12.93h-22.76l-4.7,12.93h-12.2l22.18-56.94h12.16L642.6,1031.15z M621.43,1008.62
		l-7.85-21.13l-7.69,21.13H621.43z"/>
	<path class="st1" d="M670.62,1031.15v-56.94h11.5v56.94H670.62z"/>
	<path class="st1" d="M715.46,1031.15v-56.94h11.19l23.3,38.02v-38.02h10.68v56.94h-11.54l-22.95-37.13v37.13H715.46z"/>
	<path class="st1" d="M795.37,1031.15v-56.47h11.5v46.88h28.59v9.59H795.37z"/>
	<path class="st1" d="M865.92,1031.15v-56.94h42.22v9.63h-30.72v12.62H906v9.59h-28.59v15.5h31.81v9.59H865.92z"/>
	<path class="st1" d="M938.33,1012.62l11.19-1.09c0.67,3.75,2.04,6.51,4.1,8.27c2.06,1.76,4.83,2.64,8.33,2.64
		c3.7,0,6.49-0.78,8.37-2.35c1.88-1.57,2.82-3.4,2.82-5.5c0-1.35-0.4-2.49-1.18-3.44c-0.79-0.95-2.17-1.77-4.14-2.47
		c-1.35-0.47-4.42-1.29-9.21-2.49c-6.16-1.53-10.48-3.4-12.97-5.63c-3.5-3.13-5.24-6.95-5.24-11.46c0-2.9,0.82-5.61,2.46-8.14
		c1.64-2.52,4.02-4.45,7.11-5.77c3.09-1.32,6.83-1.98,11.2-1.98c7.15,0,12.53,1.57,16.14,4.7c3.61,3.13,5.51,7.32,5.69,12.55
		l-11.5,0.51c-0.49-2.93-1.55-5.03-3.17-6.31c-1.62-1.28-4.05-1.92-7.28-1.92c-3.34,0-5.96,0.69-7.84,2.06
		c-1.22,0.88-1.83,2.06-1.83,3.54c0,1.35,0.57,2.5,1.71,3.46c1.45,1.22,4.97,2.49,10.56,3.81c5.59,1.32,9.73,2.69,12.41,4.1
		c2.68,1.41,4.78,3.34,6.29,5.79c1.52,2.45,2.27,5.47,2.27,9.07c0,3.26-0.91,6.32-2.72,9.17c-1.81,2.85-4.37,4.97-7.69,6.35
		c-3.31,1.39-7.44,2.08-12.39,2.08c-7.2,0-12.73-1.66-16.58-4.99C941.39,1023.84,939.08,1018.99,938.33,1012.62z"/>
	<path class="st1" d="M1013.66,1012.62l11.19-1.09c0.67,3.75,2.04,6.51,4.1,8.27c2.06,1.76,4.83,2.64,8.33,2.64
		c3.7,0,6.49-0.78,8.37-2.35c1.88-1.57,2.82-3.4,2.82-5.5c0-1.35-0.4-2.49-1.18-3.44c-0.79-0.95-2.17-1.77-4.14-2.47
		c-1.35-0.47-4.42-1.29-9.21-2.49c-6.16-1.53-10.48-3.4-12.97-5.63c-3.5-3.13-5.24-6.95-5.24-11.46c0-2.9,0.82-5.61,2.46-8.14
		c1.64-2.52,4.02-4.45,7.11-5.77c3.09-1.32,6.83-1.98,11.2-1.98c7.15,0,12.53,1.57,16.14,4.7c3.61,3.13,5.51,7.32,5.69,12.55
		l-11.5,0.51c-0.49-2.93-1.55-5.03-3.17-6.31s-4.05-1.92-7.28-1.92c-3.34,0-5.96,0.69-7.84,2.06c-1.22,0.88-1.83,2.06-1.83,3.54
		c0,1.35,0.57,2.5,1.71,3.46c1.45,1.22,4.97,2.49,10.56,3.81c5.59,1.32,9.73,2.69,12.41,4.1c2.68,1.41,4.78,3.34,6.29,5.79
		c1.52,2.45,2.27,5.47,2.27,9.07c0,3.26-0.91,6.32-2.72,9.17c-1.81,2.85-4.37,4.97-7.69,6.35c-3.31,1.39-7.44,2.08-12.39,2.08
		c-7.2,0-12.73-1.66-16.58-4.99C1016.72,1023.84,1014.41,1018.99,1013.66,1012.62z"/>
	<path class="st2" d="M1091.94,1031.15v-56.94h24.2c6.08,0,10.51,0.51,13.27,1.53c2.76,1.02,4.96,2.84,6.62,5.46
		c1.66,2.62,2.49,5.61,2.49,8.97c0,4.27-1.26,7.8-3.77,10.58c-2.51,2.78-6.26,4.54-11.26,5.26c2.49,1.45,4.54,3.04,6.16,4.78
		c1.62,1.74,3.8,4.82,6.54,9.24l6.95,11.11h-13.75l-8.31-12.39c-2.95-4.43-4.97-7.22-6.06-8.37c-1.09-1.15-2.24-1.94-3.46-2.37
		c-1.22-0.43-3.15-0.64-5.79-0.64h-2.33v23.77H1091.94z M1103.43,998.29h8.51c5.51,0,8.96-0.23,10.33-0.7
		c1.37-0.47,2.45-1.27,3.22-2.41c0.78-1.14,1.16-2.56,1.16-4.27c0-1.92-0.51-3.46-1.53-4.64c-1.02-1.18-2.47-1.92-4.33-2.23
		c-0.93-0.13-3.73-0.19-8.39-0.19h-8.97V998.29z"/>
	<path class="st2" d="M1171.61,1031.15v-56.94h42.22v9.63h-30.72v12.62h28.59v9.59h-28.59v15.5h31.81v9.59H1171.61z"/>
	<path class="st2" d="M1246.79,1031.15v-56.94h17.21l10.33,38.84l10.21-38.84h17.24v56.94h-10.68v-44.82l-11.3,44.82h-11.07
		l-11.26-44.82v44.82H1246.79z"/>
	<path class="st2" d="M1333.14,1003.03c0-5.8,0.87-10.67,2.6-14.6c1.29-2.9,3.06-5.5,5.3-7.81c2.24-2.3,4.69-4.01,7.36-5.13
		c3.55-1.5,7.64-2.25,12.27-2.25c8.39,0,15.1,2.6,20.14,7.81c5.04,5.21,7.56,12.44,7.56,21.71c0,9.19-2.5,16.38-7.5,21.58
		c-5,5.19-11.68,7.79-20.04,7.79c-8.47,0-15.2-2.58-20.2-7.75C1335.64,1019.21,1333.14,1012.09,1333.14,1003.03z M1344.99,1002.64
		c0,6.45,1.49,11.33,4.47,14.66c2.98,3.33,6.76,4.99,11.34,4.99c4.58,0,8.34-1.65,11.28-4.95c2.94-3.3,4.41-8.25,4.41-14.86
		c0-6.53-1.43-11.39-4.29-14.6c-2.86-3.21-6.66-4.82-11.4-4.82c-4.74,0-8.56,1.62-11.46,4.87
		C1346.44,991.19,1344.99,996.09,1344.99,1002.64z"/>
	<path class="st2" d="M1434.14,1031.15l-20.35-56.94h12.47l14.41,42.14l13.94-42.14h12.19l-20.39,56.94H1434.14z"/>
	<path class="st2" d="M1540.39,1031.15h-12.51l-4.97-12.93h-22.76l-4.7,12.93h-12.19l22.18-56.94h12.16L1540.39,1031.15z
		 M1519.22,1008.62l-7.85-21.13l-7.69,21.13H1519.22z"/>
	<path class="st2" d="M1569.07,1031.15v-56.47h11.5v46.88h28.59v9.59H1569.07z"/>
	<path class="st2" d="M1636.7,1012.62l11.19-1.09c0.67,3.75,2.04,6.51,4.1,8.27c2.06,1.76,4.83,2.64,8.33,2.64
		c3.7,0,6.49-0.78,8.37-2.35c1.88-1.57,2.82-3.4,2.82-5.5c0-1.35-0.4-2.49-1.18-3.44c-0.79-0.95-2.17-1.77-4.14-2.47
		c-1.35-0.47-4.42-1.29-9.21-2.49c-6.16-1.53-10.48-3.4-12.97-5.63c-3.5-3.13-5.24-6.95-5.24-11.46c0-2.9,0.82-5.61,2.46-8.14
		c1.64-2.52,4.02-4.45,7.11-5.77c3.09-1.32,6.83-1.98,11.2-1.98c7.15,0,12.53,1.57,16.14,4.7c3.61,3.13,5.51,7.32,5.69,12.55
		l-11.5,0.51c-0.49-2.93-1.55-5.03-3.17-6.31c-1.62-1.28-4.05-1.92-7.28-1.92c-3.34,0-5.96,0.69-7.84,2.06
		c-1.22,0.88-1.83,2.06-1.83,3.54c0,1.35,0.57,2.5,1.71,3.46c1.45,1.22,4.97,2.49,10.56,3.81c5.59,1.32,9.73,2.69,12.41,4.1
		c2.68,1.41,4.78,3.34,6.29,5.79c1.52,2.45,2.27,5.47,2.27,9.07c0,3.26-0.91,6.32-2.72,9.17c-1.81,2.85-4.37,4.97-7.69,6.35
		c-3.31,1.39-7.44,2.08-12.39,2.08c-7.2,0-12.73-1.66-16.58-4.99C1639.76,1023.84,1637.45,1018.99,1636.7,1012.62z"/>
	<g class="st3">
		<path class="st4" d="M752.13,1089.72v-19.5h3.88l4.62,13.81c0.43,1.29,0.74,2.25,0.93,2.89c0.22-0.71,0.57-1.75,1.04-3.13
			l4.67-13.57h3.47v19.5h-2.49v-16.32l-5.67,16.32h-2.33l-5.64-16.61v16.61H752.13z"/>
		<path class="st4" d="M783.67,1089.72l7.49-19.5h2.78l7.98,19.5h-2.94l-2.27-5.91h-8.15l-2.14,5.91H783.67z M789.29,1081.71h6.61
			l-2.04-5.4c-0.62-1.64-1.09-2.99-1.39-4.05c-0.25,1.25-0.6,2.5-1.05,3.73L789.29,1081.71z"/>
		<path class="st4" d="M814.78,1089.72v-19.5h2.58v9.67l9.69-9.67h3.5l-8.18,7.9l8.54,11.6h-3.41l-6.94-9.87l-3.2,3.11v6.76H814.78z
			"/>
		<path class="st4" d="M844.39,1089.72v-19.5h2.58v19.5H844.39z"/>
		<path class="st4" d="M862.4,1089.72v-19.5h2.65l10.24,15.32v-15.32h2.48v19.5h-2.65l-10.24-15.33v15.33H862.4z"/>
		<path class="st4" d="M902.13,1082.06v-2.29l8.26-0.01v7.24c-1.27,1.01-2.57,1.77-3.92,2.28s-2.73,0.77-4.15,0.77
			c-1.92,0-3.66-0.41-5.23-1.23c-1.56-0.82-2.74-2.01-3.54-3.56c-0.8-1.55-1.2-3.29-1.2-5.2c0-1.9,0.4-3.67,1.19-5.32
			c0.79-1.64,1.93-2.87,3.42-3.67c1.49-0.8,3.21-1.2,5.15-1.2c1.41,0,2.69,0.23,3.83,0.69c1.14,0.46,2.04,1.09,2.68,1.91
			c0.65,0.82,1.14,1.88,1.48,3.19l-2.33,0.64c-0.3-0.99-0.66-1.77-1.09-2.34c-0.44-0.57-1.06-1.02-1.86-1.37
			c-0.81-0.34-1.71-0.51-2.69-0.51c-1.18,0-2.2,0.18-3.06,0.54c-0.86,0.36-1.56,0.83-2.08,1.42c-0.53,0.59-0.94,1.23-1.23,1.93
			c-0.5,1.21-0.75,2.52-0.75,3.93c0,1.74,0.3,3.19,0.9,4.36c0.6,1.17,1.47,2.04,2.61,2.61c1.14,0.57,2.36,0.85,3.65,0.85
			c1.12,0,2.21-0.21,3.28-0.64c1.06-0.43,1.87-0.89,2.42-1.38v-3.63H902.13z"/>
		<path class="st4" d="M943.61,1089.72v-19.5h8.65c1.74,0,3.06,0.17,3.96,0.52c0.91,0.35,1.63,0.97,2.17,1.86
			c0.54,0.89,0.81,1.87,0.81,2.94c0,1.38-0.45,2.55-1.34,3.5c-0.9,0.95-2.28,1.56-4.15,1.81c0.68,0.32,1.2,0.65,1.56,0.97
			c0.75,0.69,1.47,1.56,2.14,2.59l3.39,5.31h-3.24l-2.58-4.06c-0.75-1.17-1.37-2.07-1.86-2.69c-0.48-0.62-0.92-1.06-1.31-1.3
			c-0.39-0.25-0.78-0.42-1.18-0.52c-0.29-0.06-0.77-0.1-1.44-0.1h-3v8.66H943.61z M946.19,1078.82h5.55c1.18,0,2.1-0.12,2.76-0.36
			c0.67-0.24,1.17-0.64,1.52-1.17c0.35-0.53,0.52-1.11,0.52-1.75c0-0.93-0.33-1.68-1-2.28c-0.67-0.59-1.73-0.89-3.17-0.89h-6.18
			V1078.82z"/>
		<path class="st4" d="M974.2,1089.72v-19.5h14.1v2.3h-11.52v5.97h10.79v2.29h-10.79v6.64h11.98v2.3H974.2z"/>
		<path class="st4" d="M1003.13,1089.72v-19.5h3.88l4.62,13.81c0.43,1.29,0.74,2.25,0.93,2.89c0.22-0.71,0.57-1.75,1.04-3.13
			l4.67-13.57h3.47v19.5h-2.49v-16.32l-5.67,16.32h-2.33l-5.64-16.61v16.61H1003.13z"/>
		<path class="st4" d="M1036.03,1080.22c0-3.24,0.87-5.77,2.61-7.61c1.74-1.83,3.98-2.74,6.73-2.74c1.8,0,3.42,0.43,4.87,1.29
			c1.44,0.86,2.55,2.06,3.31,3.6c0.76,1.54,1.13,3.28,1.13,5.24c0,1.98-0.4,3.75-1.2,5.31c-0.8,1.56-1.93,2.74-3.39,3.54
			c-1.46,0.8-3.04,1.21-4.74,1.21c-1.83,0-3.48-0.45-4.92-1.33c-1.44-0.89-2.54-2.09-3.29-3.63
			C1036.4,1083.55,1036.03,1081.93,1036.03,1080.22z M1038.69,1080.26c0,2.35,0.63,4.2,1.9,5.56c1.26,1.35,2.85,2.03,4.76,2.03
			c1.94,0,3.54-0.68,4.79-2.05c1.26-1.36,1.88-3.3,1.88-5.81c0-1.59-0.27-2.97-0.8-4.15c-0.53-1.19-1.32-2.1-2.35-2.75
			c-1.04-0.65-2.2-0.98-3.48-0.98c-1.83,0-3.4,0.63-4.72,1.88C1039.34,1075.22,1038.69,1077.32,1038.69,1080.26z"/>
		<path class="st4" d="M1074.48,1089.72l-7.55-19.5h2.79l5.07,14.17c0.41,1.13,0.75,2.2,1.02,3.19c0.3-1.06,0.65-2.13,1.05-3.19
			l5.27-14.17h2.64l-7.64,19.5H1074.48z"/>
		<path class="st4" d="M1093.82,1089.72l7.49-19.5h2.78l7.98,19.5h-2.94l-2.27-5.91h-8.15l-2.14,5.91H1093.82z M1099.45,1081.71
			h6.61l-2.04-5.4c-0.62-1.64-1.09-2.99-1.39-4.05c-0.25,1.25-0.6,2.5-1.05,3.73L1099.45,1081.71z"/>
		<path class="st4" d="M1124.93,1089.72v-19.5h2.58v17.2h9.6v2.3H1124.93z"/>
		<path class="st4" d="M1150.2,1083.45l2.44-0.21c0.11,0.97,0.38,1.77,0.8,2.4c0.42,0.63,1.08,1.13,1.96,1.52
			c0.89,0.38,1.89,0.58,3,0.58c0.98,0,1.85-0.15,2.61-0.44c0.75-0.3,1.31-0.7,1.68-1.21c0.37-0.51,0.55-1.07,0.55-1.67
			c0-0.61-0.18-1.15-0.53-1.6c-0.35-0.46-0.94-0.84-1.76-1.15c-0.52-0.2-1.68-0.52-3.47-0.96c-1.79-0.43-3.05-0.83-3.77-1.22
			c-0.93-0.48-1.62-1.09-2.08-1.81c-0.46-0.72-0.68-1.53-0.68-2.43c0-0.98,0.28-1.91,0.84-2.76c0.56-0.86,1.38-1.51,2.45-1.95
			c1.07-0.44,2.26-0.66,3.58-0.66c1.44,0,2.72,0.23,3.83,0.7c1.11,0.47,1.95,1.15,2.55,2.06c0.59,0.91,0.91,1.93,0.96,3.07
			l-2.47,0.19c-0.14-1.24-0.58-2.17-1.35-2.8c-0.77-0.63-1.9-0.94-3.4-0.94c-1.56,0-2.7,0.29-3.41,0.86
			c-0.71,0.57-1.07,1.26-1.07,2.07c0,0.7,0.25,1.28,0.76,1.73c0.49,0.45,1.79,0.92,3.89,1.39c2.1,0.48,3.54,0.89,4.32,1.24
			c1.13,0.52,1.97,1.19,2.52,1.99c0.54,0.8,0.81,1.73,0.81,2.77c0,1.04-0.3,2.02-0.89,2.93c-0.59,0.92-1.44,1.63-2.56,2.14
			s-2.37,0.77-3.76,0.77c-1.76,0-3.25-0.26-4.44-0.78c-1.19-0.51-2.13-1.28-2.81-2.32
			C1150.6,1085.92,1150.24,1084.75,1150.2,1083.45z"/>
		<path class="st4" d="M1198.63,1089.72v-19.5h7.35c1.29,0,2.28,0.06,2.97,0.18c0.96,0.16,1.76,0.47,2.41,0.91
			c0.64,0.45,1.17,1.08,1.56,1.89c0.4,0.8,0.59,1.69,0.59,2.66c0,1.66-0.52,3.06-1.58,4.21c-1.06,1.15-2.96,1.72-5.72,1.72h-5v7.93
			H1198.63z M1201.21,1079.49h5.04c1.67,0,2.85-0.31,3.55-0.93c0.7-0.63,1.05-1.5,1.05-2.62c0-0.81-0.21-1.51-0.62-2.09
			s-0.96-0.96-1.63-1.15c-0.44-0.11-1.24-0.17-2.41-0.17h-4.99V1079.49z"/>
		<path class="st4" d="M1223.54,1089.72l7.49-19.5h2.78l7.98,19.5h-2.94l-2.27-5.91h-8.15l-2.14,5.91H1223.54z M1229.17,1081.71
			h6.61l-2.04-5.4c-0.62-1.64-1.09-2.99-1.39-4.05c-0.25,1.25-0.6,2.5-1.05,3.73L1229.17,1081.71z"/>
		<path class="st4" d="M1255.19,1089.72v-19.5h2.58v19.5H1255.19z"/>
		<path class="st4" d="M1273.2,1089.72v-19.5h2.65l10.24,15.32v-15.32h2.48v19.5h-2.65l-10.24-15.33v15.33H1273.2z"/>
		<path class="st4" d="M1303.7,1089.72v-19.5h2.58v17.2h9.6v2.3H1303.7z"/>
		<path class="st4" d="M1329.91,1089.72v-19.5h14.1v2.3h-11.52v5.97h10.79v2.29h-10.79v6.64h11.97v2.3H1329.91z"/>
		<path class="st4" d="M1358.05,1083.45l2.44-0.21c0.11,0.97,0.38,1.77,0.8,2.4c0.42,0.63,1.08,1.13,1.96,1.52
			c0.89,0.38,1.89,0.58,3,0.58c0.98,0,1.85-0.15,2.61-0.44c0.75-0.3,1.31-0.7,1.68-1.21c0.37-0.51,0.55-1.07,0.55-1.67
			c0-0.61-0.18-1.15-0.53-1.6c-0.35-0.46-0.94-0.84-1.76-1.15c-0.52-0.2-1.68-0.52-3.47-0.96c-1.79-0.43-3.05-0.83-3.77-1.22
			c-0.93-0.48-1.62-1.09-2.08-1.81c-0.46-0.72-0.68-1.53-0.68-2.43c0-0.98,0.28-1.91,0.84-2.76c0.56-0.86,1.38-1.51,2.45-1.95
			c1.07-0.44,2.26-0.66,3.58-0.66c1.44,0,2.72,0.23,3.83,0.7c1.11,0.47,1.95,1.15,2.55,2.06c0.59,0.91,0.91,1.93,0.96,3.07
			l-2.47,0.19c-0.14-1.24-0.58-2.17-1.35-2.8c-0.77-0.63-1.9-0.94-3.4-0.94c-1.56,0-2.7,0.29-3.41,0.86
			c-0.71,0.57-1.07,1.26-1.07,2.07c0,0.7,0.25,1.28,0.76,1.73c0.49,0.45,1.79,0.92,3.89,1.39c2.1,0.48,3.54,0.89,4.32,1.24
			c1.13,0.52,1.97,1.19,2.52,1.99c0.54,0.8,0.81,1.73,0.81,2.77c0,1.04-0.3,2.02-0.89,2.93c-0.59,0.92-1.44,1.63-2.56,2.14
			c-1.11,0.51-2.37,0.77-3.76,0.77c-1.76,0-3.25-0.26-4.44-0.78c-1.19-0.51-2.13-1.28-2.81-2.32
			C1358.44,1085.92,1358.09,1084.75,1358.05,1083.45z"/>
		<path class="st4" d="M1387.13,1083.45l2.44-0.21c0.11,0.97,0.38,1.77,0.8,2.4c0.42,0.63,1.08,1.13,1.96,1.52
			c0.89,0.38,1.89,0.58,3,0.58c0.98,0,1.85-0.15,2.61-0.44c0.75-0.3,1.31-0.7,1.68-1.21c0.37-0.51,0.55-1.07,0.55-1.67
			c0-0.61-0.18-1.15-0.53-1.6c-0.35-0.46-0.94-0.84-1.76-1.15c-0.52-0.2-1.68-0.52-3.47-0.96c-1.79-0.43-3.05-0.83-3.77-1.22
			c-0.93-0.48-1.62-1.09-2.08-1.81c-0.46-0.72-0.68-1.53-0.68-2.43c0-0.98,0.28-1.91,0.84-2.76c0.56-0.86,1.38-1.51,2.45-1.95
			c1.07-0.44,2.26-0.66,3.58-0.66c1.44,0,2.72,0.23,3.83,0.7c1.11,0.47,1.95,1.15,2.55,2.06c0.59,0.91,0.91,1.93,0.96,3.07
			l-2.47,0.19c-0.14-1.24-0.58-2.17-1.35-2.8c-0.77-0.63-1.9-0.94-3.4-0.94c-1.56,0-2.7,0.29-3.41,0.86
			c-0.71,0.57-1.07,1.26-1.07,2.07c0,0.7,0.25,1.28,0.76,1.73c0.49,0.45,1.79,0.92,3.89,1.39c2.1,0.48,3.54,0.89,4.32,1.24
			c1.13,0.52,1.97,1.19,2.52,1.99c0.54,0.8,0.81,1.73,0.81,2.77c0,1.04-0.3,2.02-0.89,2.93c-0.59,0.92-1.44,1.63-2.56,2.14
			s-2.37,0.77-3.76,0.77c-1.76,0-3.25-0.26-4.44-0.78c-1.19-0.51-2.13-1.28-2.81-2.32
			C1387.52,1085.92,1387.16,1084.75,1387.13,1083.45z"/>
		<path class="st4" d="M1434.67,1083.45l2.44-0.21c0.11,0.97,0.38,1.77,0.8,2.4c0.42,0.63,1.08,1.13,1.96,1.52
			c0.89,0.38,1.89,0.58,3,0.58c0.98,0,1.85-0.15,2.61-0.44c0.75-0.3,1.31-0.7,1.68-1.21c0.37-0.51,0.55-1.07,0.55-1.67
			c0-0.61-0.18-1.15-0.53-1.6c-0.35-0.46-0.94-0.84-1.76-1.15c-0.52-0.2-1.68-0.52-3.47-0.96c-1.79-0.43-3.05-0.83-3.77-1.22
			c-0.93-0.48-1.62-1.09-2.08-1.81c-0.46-0.72-0.68-1.53-0.68-2.43c0-0.98,0.28-1.91,0.84-2.76c0.56-0.86,1.38-1.51,2.45-1.95
			c1.07-0.44,2.26-0.66,3.58-0.66c1.44,0,2.72,0.23,3.83,0.7c1.11,0.47,1.95,1.15,2.55,2.06c0.59,0.91,0.91,1.93,0.96,3.07
			l-2.47,0.19c-0.14-1.24-0.58-2.17-1.35-2.8c-0.77-0.63-1.9-0.94-3.4-0.94c-1.56,0-2.7,0.29-3.41,0.86
			c-0.71,0.57-1.07,1.26-1.07,2.07c0,0.7,0.25,1.28,0.76,1.73c0.49,0.45,1.79,0.92,3.89,1.39c2.1,0.48,3.54,0.89,4.32,1.24
			c1.13,0.52,1.97,1.19,2.52,1.99c0.54,0.8,0.81,1.73,0.81,2.77c0,1.04-0.3,2.02-0.89,2.93c-0.59,0.92-1.44,1.63-2.56,2.14
			s-2.37,0.77-3.76,0.77c-1.76,0-3.25-0.26-4.44-0.78c-1.19-0.51-2.13-1.28-2.81-2.32
			C1435.06,1085.92,1434.71,1084.75,1434.67,1083.45z"/>
		<path class="st4" d="M1465.06,1089.72v-19.5h2.58v19.5H1465.06z"/>
		<path class="st4" d="M1483.07,1089.72v-19.5h2.65l10.24,15.32v-15.32h2.48v19.5h-2.65l-10.24-15.33v15.33H1483.07z"/>
		<path class="st4" d="M1527.58,1082.87l2.58,0.65c-0.54,2.12-1.52,3.74-2.92,4.85c-1.41,1.12-3.12,1.67-5.15,1.67
			c-2.1,0-3.82-0.43-5.13-1.28c-1.32-0.86-2.32-2.09-3.01-3.72c-0.69-1.62-1.03-3.37-1.03-5.23c0-2.03,0.39-3.8,1.16-5.31
			c0.78-1.51,1.88-2.66,3.31-3.45c1.44-0.79,3.01-1.18,4.73-1.18c1.95,0,3.59,0.5,4.92,1.49c1.33,0.99,2.26,2.39,2.78,4.19
			l-2.54,0.6c-0.46-1.42-1.11-2.45-1.97-3.1c-0.86-0.64-1.94-0.97-3.25-0.97c-1.5,0-2.75,0.36-3.76,1.08
			c-1.01,0.72-1.72,1.68-2.12,2.89c-0.41,1.21-0.61,2.46-0.61,3.74c0,1.66,0.24,3.11,0.72,4.35c0.48,1.24,1.24,2.16,2.26,2.77
			c1.02,0.61,2.12,0.92,3.31,0.92c1.44,0,2.67-0.42,3.67-1.25C1526.55,1085.75,1527.23,1084.52,1527.58,1082.87z"/>
		<path class="st4" d="M1544.3,1089.72v-19.5h14.1v2.3h-11.52v5.97h10.79v2.29h-10.79v6.64h11.97v2.3H1544.3z"/>
		<path class="st4" d="M1599.84,1089.72h-2.4v-15.26c-0.58,0.55-1.33,1.1-2.27,1.65c-0.94,0.55-1.77,0.96-2.52,1.24v-2.32
			c1.34-0.63,2.51-1.39,3.51-2.29c1-0.89,1.72-1.76,2.13-2.61h1.54V1089.72z"/>
		<path class="st4" d="M1617.23,1085.21l2.3-0.21c0.19,1.08,0.57,1.87,1.12,2.36c0.55,0.48,1.26,0.73,2.11,0.73
			c0.74,0,1.38-0.16,1.93-0.5c0.56-0.33,1.01-0.79,1.37-1.35c0.35-0.57,0.65-1.32,0.89-2.28c0.24-0.96,0.36-1.93,0.36-2.93
			c0-0.11,0-0.27-0.01-0.48c-0.48,0.77-1.13,1.38-1.96,1.86c-0.83,0.48-1.73,0.71-2.7,0.71c-1.61,0-2.98-0.59-4.1-1.76
			c-1.12-1.17-1.68-2.71-1.68-4.63c0-1.98,0.59-3.57,1.75-4.78c1.17-1.21,2.63-1.81,4.38-1.81c1.27,0,2.43,0.34,3.48,1.03
			c1.05,0.68,1.85,1.65,2.4,2.92s0.82,3.09,0.82,5.49c0,2.49-0.27,4.48-0.81,5.95c-0.54,1.48-1.34,2.6-2.41,3.37
			c-1.07,0.77-2.32,1.16-3.76,1.16c-1.53,0-2.77-0.43-3.74-1.27C1618.01,1087.93,1617.43,1086.74,1617.23,1085.21z M1627.04,1076.6
			c0-1.37-0.37-2.46-1.1-3.27c-0.73-0.8-1.61-1.21-2.64-1.21c-1.07,0-1.99,0.44-2.78,1.3c-0.79,0.87-1.18,2-1.18,3.38
			c0,1.24,0.37,2.25,1.12,3.03c0.75,0.78,1.67,1.16,2.77,1.16c1.11,0,2.02-0.39,2.73-1.16
			C1626.68,1079.05,1627.04,1077.97,1627.04,1076.6z"/>
		<path class="st4" d="M1643.09,1072.77v-2.3h12.63v1.86c-1.25,1.32-2.47,3.08-3.69,5.27c-1.22,2.19-2.16,4.45-2.83,6.76
			c-0.48,1.63-0.79,3.42-0.92,5.36h-2.46c0.02-1.53,0.32-3.39,0.9-5.56s1.41-4.27,2.48-6.29s2.23-3.72,3.44-5.1H1643.09z"/>
		<path class="st4" d="M1672.66,1079.14c-0.99-0.36-1.73-0.88-2.21-1.56c-0.48-0.67-0.72-1.48-0.72-2.42c0-1.42,0.51-2.61,1.53-3.58
			c1.02-0.97,2.38-1.45,4.07-1.45c1.7,0,3.07,0.49,4.11,1.48c1.04,0.99,1.56,2.2,1.56,3.61c0,0.91-0.24,1.69-0.71,2.37
			c-0.48,0.67-1.19,1.18-2.16,1.55c1.2,0.39,2.11,1.02,2.73,1.89c0.63,0.87,0.94,1.91,0.94,3.11c0,1.67-0.59,3.07-1.77,4.2
			c-1.18,1.14-2.73,1.71-4.66,1.71c-1.92,0-3.48-0.57-4.65-1.71c-1.18-1.14-1.77-2.56-1.77-4.27c0-1.27,0.32-2.33,0.96-3.19
			C1670.56,1080.03,1671.48,1079.45,1672.66,1079.14z M1671.41,1084.09c0,0.68,0.16,1.34,0.49,1.98c0.32,0.64,0.8,1.13,1.44,1.48
			c0.64,0.35,1.33,0.52,2.07,0.52c1.14,0,2.09-0.36,2.83-1.1c0.75-0.74,1.12-1.67,1.12-2.81c0-1.15-0.38-2.11-1.15-2.86
			c-0.77-0.76-1.73-1.13-2.88-1.13c-1.12,0-2.06,0.37-2.8,1.12C1671.79,1082.04,1671.41,1082.97,1671.41,1084.09z M1672.19,1075.08
			c0,0.93,0.3,1.68,0.89,2.26c0.59,0.59,1.36,0.88,2.31,0.88c0.92,0,1.68-0.29,2.27-0.87s0.88-1.29,0.88-2.13
			c0-0.88-0.3-1.62-0.91-2.22c-0.61-0.6-1.36-0.9-2.26-0.9c-0.92,0-1.67,0.29-2.28,0.88
			C1672.49,1073.56,1672.19,1074.26,1672.19,1075.08z"/>
	</g>
	<g>
		<polygon class="st5" points="653.28,1051.95 657.15,1052 657.15,1052 		"/>
		<path class="st5" d="M703.45,1049.42l-42.5,0.69l-89.19,81.19l-18-18l67.4-63.31l-43.58-0.63l-45.51,42.25l-90.09-90.09
			l94.84-94.84l50.07,50.07l42.75,0.23l-71.56-71.56l16.71-16.71l81.63,88.09L705.2,957L574.91,826.72l-87.41,0.38L317,997.6
			l174.86,175.68l0,0h79.79h-1.08h1.08L703.45,1049.42z M551.65,849.98l-14.5,14.5l-14.5-14.5H551.65z M493.64,863.49l22.25,22.25
			l-115.9,115.9l110.24,110.24l-18.89,17.54L359.52,997.6L493.64,863.49z M516.5,1148.3l15.55-14.61l13.59,13.59L516.5,1148.3z"/>
	</g>
</g>
</svg>
