<svg version="1.1" id="Layer_1" xmlns="http://www.w3.org/2000/svg" xmlns:xlink="http://www.w3.org/1999/xlink" x="0px" y="0px"
	 width="100%" viewBox="0 0 1023 1023" enable-background="new 0 0 1023 1023" xml:space="preserve">
<path fill="#0E3C54" opacity="1.000000" stroke="none" 
	d="
M683.000000,1024.000000 
	C455.333344,1024.000000 228.166672,1024.000000 1.000000,1024.000000 
	C1.000000,683.000000 1.000000,342.000000 1.000000,1.000000 
	C342.000000,1.000000 683.000000,1.000000 1024.000000,1.000000 
	C1024.000000,342.000000 1024.000000,683.000000 1024.000000,1024.000000 
	C910.500000,1024.000000 797.000000,1024.000000 683.000000,1024.000000 
M528.500000,136.998123 
	C494.332336,136.998123 460.164520,137.048523 425.997284,136.926682 
	C422.237610,136.913284 419.560059,137.945038 416.852081,140.656784 
	C301.440552,256.228424 185.952393,371.723511 70.428970,487.183289 
	C69.154709,488.456879 67.292473,489.142120 65.704712,490.102020 
	C65.720154,490.942291 65.735596,491.782562 65.751030,492.622833 
	C69.318230,495.579559 73.158089,498.264648 76.413177,501.532227 
	C193.092636,618.660706 309.727234,735.833923 426.291656,853.076904 
	C429.091766,855.893372 431.808746,857.103699 435.820709,857.092834 
	C486.652618,856.954407 537.485168,857.043640 588.316895,856.873596 
	C590.774963,856.865356 593.859009,855.624573 595.589355,853.895020 
	C643.312439,806.194641 690.901611,758.360291 738.504517,710.539612 
	C795.411987,653.371826 852.264404,596.148926 909.246094,539.055237 
	C924.626099,523.645020 940.387451,508.615326 956.146545,493.242432 
	C954.279053,491.175385 953.339478,490.038483 952.301392,489.000092 
	C835.999207,372.669312 719.699219,256.336365 603.289490,140.113297 
	C601.558228,138.384811 598.468079,137.186111 595.997009,137.159897 
	C573.833252,136.924713 551.666138,137.008270 528.500000,136.998123 
z"/>
<path fill="#EF6C21" opacity="1.000000" stroke="none" 
	d="
M529.000000,136.998123 
	C551.666138,137.008270 573.833252,136.924713 595.997009,137.159897 
	C598.468079,137.186111 601.558228,138.384811 603.289490,140.113297 
	C719.699219,256.336365 835.999207,372.669312 952.301392,489.000092 
	C953.339478,490.038483 954.279053,491.175385 956.146545,493.242432 
	C940.387451,508.615326 924.626099,523.645020 909.246094,539.055237 
	C852.264404,596.148926 795.411987,653.371826 738.504517,710.539612 
	C690.901611,758.360291 643.312439,806.194641 595.589355,853.895020 
	C593.859009,855.624573 590.774963,856.865356 588.316895,856.873596 
	C537.485168,857.043640 486.652618,856.954407 435.820709,857.092834 
	C431.808746,857.103699 429.091766,855.893372 426.291656,853.076904 
	C309.727234,735.833923 193.092636,618.660706 76.413177,501.532227 
	C73.158089,498.264648 69.318230,495.579559 65.751030,492.622833 
	C65.735596,491.782562 65.720154,490.942291 65.704712,490.102020 
	C67.292473,489.142120 69.154709,488.456879 70.428970,487.183289 
	C185.952393,371.723511 301.440552,256.228424 416.852081,140.656784 
	C419.560059,137.945038 422.237610,136.913284 425.997284,136.926682 
	C460.164520,137.048523 494.332336,136.998123 529.000000,136.998123 
M517.566956,322.933044 
	C515.377686,320.499542 513.188416,318.066040 511.290741,315.956665 
	C449.548615,377.688904 388.519653,438.708099 327.687378,499.530640 
	C388.861511,560.710754 450.239166,622.094421 511.240845,683.102051 
	C572.130188,622.214294 633.227295,561.118713 694.493774,499.853790 
	C635.897217,441.259247 576.982056,382.346191 517.566956,322.933044 
M858.541382,483.963806 
	C768.298218,393.711761 678.055054,303.459686 588.415222,213.811050 
	C572.869202,229.333725 557.590271,244.589767 541.990967,260.165649 
	C621.842224,340.012939 702.060852,420.227600 782.735535,500.898315 
	C706.163635,577.464722 629.757141,653.865784 553.126404,730.491089 
	C566.368774,742.775635 579.250305,754.725464 591.870605,766.432983 
	C683.489441,674.813782 774.784546,583.518433 866.750000,491.552643 
	C864.396301,489.389130 861.718750,486.927979 858.541382,483.963806 
M269.732269,469.232452 
	C339.994476,399.028320 410.256683,328.824188 480.303864,258.834930 
	C464.587250,243.137726 449.403778,227.973007 434.871338,213.458542 
	C342.184021,306.145813 249.184662,399.145081 156.686035,491.643646 
	C247.479950,582.447266 338.744171,673.721191 430.260101,765.246887 
	C442.804504,753.605835 455.681061,741.656555 469.065552,729.235901 
	C392.448395,652.629639 316.030640,576.222778 239.345123,499.548187 
	C249.484711,489.432739 259.358307,479.582642 269.732269,469.232452 
M486.530365,801.089600 
	C484.889313,801.887573 483.248230,802.685608 481.607178,803.483643 
	C482.197540,804.208069 482.787903,804.932556 483.378265,805.656982 
	C501.666016,805.656982 519.953796,805.656982 539.236877,805.656982 
	C529.294617,796.345886 520.000061,787.641357 510.423615,778.672852 
	C502.514557,786.099243 494.791199,793.351257 486.530365,801.089600 
M505.334686,194.160660 
	C507.111359,196.352737 508.888062,198.544800 509.848419,199.729675 
	C515.584656,194.406509 520.489807,189.854584 525.411682,185.287109 
	C516.061401,185.287109 506.737549,185.287109 497.413666,185.287109 
	C497.134796,185.701035 496.855927,186.114960 496.577057,186.528885 
	C499.329742,188.906158 502.082458,191.283417 505.334686,194.160660 
z"/>
<path fill="#0E3C54" opacity="1.000000" stroke="none" 
	d="
M517.816956,323.183105 
	C576.982056,382.346191 635.897217,441.259247 694.493774,499.853790 
	C633.227295,561.118713 572.130188,622.214294 511.240845,683.102051 
	C450.239166,622.094421 388.861511,560.710754 327.687378,499.530640 
	C388.519653,438.708099 449.548615,377.688904 511.290741,315.956665 
	C513.188416,318.066040 515.377686,320.499542 517.816956,323.183105 
z"/>
<path fill="#0F3C54" opacity="1.000000" stroke="none" 
	d="
M858.791260,484.215332 
	C861.718750,486.927979 864.396301,489.389130 866.750000,491.552643 
	C774.784546,583.518433 683.489441,674.813782 591.870605,766.432983 
	C579.250305,754.725464 566.368774,742.775635 553.126404,730.491089 
	C629.757141,653.865784 706.163635,577.464722 782.735535,500.898315 
	C702.060852,420.227600 621.842224,340.012939 541.990967,260.165649 
	C557.590271,244.589767 572.869202,229.333725 588.415222,213.811050 
	C678.055054,303.459686 768.298218,393.711761 858.791260,484.215332 
z"/>
<path fill="#0F3C54" opacity="1.000000" stroke="none" 
	d="
M269.482086,469.482483 
	C259.358307,479.582642 249.484711,489.432739 239.345123,499.548187 
	C316.030640,576.222778 392.448395,652.629639 469.065552,729.235901 
	C455.681061,741.656555 442.804504,753.605835 430.260101,765.246887 
	C338.744171,673.721191 247.479950,582.447266 156.686035,491.643646 
	C249.184662,399.145081 342.184021,306.145813 434.871338,213.458542 
	C449.403778,227.973007 464.587250,243.137726 480.303864,258.834930 
	C410.256683,328.824188 339.994476,399.028320 269.482086,469.482483 
z"/>
<path fill="#113D53" opacity="1.000000" stroke="none" 
	d="
M486.799103,800.846436 
	C494.791199,793.351257 502.514557,786.099243 510.423615,778.672852 
	C520.000061,787.641357 529.294617,796.345886 539.236877,805.656982 
	C519.953796,805.656982 501.666016,805.656982 483.378265,805.656982 
	C482.787903,804.932556 482.197540,804.208069 481.607178,803.483643 
	C483.248230,802.685608 484.889313,801.887573 486.799103,800.846436 
z"/>
<path fill="#0E3C54" opacity="1.000000" stroke="none" 
	d="
M505.084900,193.910675 
	C502.082458,191.283417 499.329742,188.906158 496.577057,186.528885 
	C496.855927,186.114960 497.134796,185.701035 497.413666,185.287109 
	C506.737549,185.287109 516.061401,185.287109 525.411682,185.287109 
	C520.489807,189.854584 515.584656,194.406509 509.848419,199.729675 
	C508.888062,198.544800 507.111359,196.352737 505.084900,193.910675 
z"/>
</svg>