<svg xmlns="http://www.w3.org/2000/svg" viewBox="0 0 120 120" fill="none">
  <rect width="120" height="120" rx="16" fill="#E3F2FD"/>
  <rect x="15" y="20" width="90" height="75" fill="#1565C0" rx="4"/>
  <rect x="20" y="26" width="10" height="8" fill="#BBDEFB" rx="1"/>
  <rect x="32" y="26" width="10" height="8" fill="#BBDEFB" rx="1"/>
  <rect x="44" y="26" width="10" height="8" fill="#BBDEFB" rx="1"/>
  <rect x="56" y="26" width="10" height="8" fill="#BBDEFB" rx="1"/>
  <rect x="68" y="26" width="10" height="8" fill="#BBDEFB" rx="1"/>
  <rect x="80" y="26" width="10" height="8" fill="#BBDEFB" rx="1"/>
  <rect x="92" y="26" width="8" height="8" fill="#BBDEFB" rx="1"/>
  <rect x="20" y="36" width="10" height="8" fill="#BBDEFB" rx="1"/>
  <rect x="32" y="36" width="10" height="8" fill="#BBDEFB" rx="1"/>
  <rect x="44" y="36" width="10" height="8" fill="#BBDEFB" rx="1"/>
  <rect x="56" y="36" width="10" height="8" fill="#BBDEFB" rx="1"/>
  <rect x="68" y="36" width="10" height="8" fill="#BBDEFB" rx="1"/>
  <rect x="80" y="36" width="10" height="8" fill="#BBDEFB" rx="1"/>
  <rect x="92" y="36" width="8" height="8" fill="#BBDEFB" rx="1"/>
  <rect x="20" y="46" width="10" height="8" fill="#BBDEFB" rx="1"/>
  <rect x="32" y="46" width="10" height="8" fill="#BBDEFB" rx="1"/>
  <rect x="44" y="46" width="10" height="8" fill="#BBDEFB" rx="1"/>
  <rect x="50" y="78" width="20" height="15" fill="#0D47A1" rx="2"/>
  <text x="60" y="112" font-family="Arial" font-size="11" font-weight="bold" fill="#0D47A1">16+</text>
</svg>