<svg xmlns="http://www.w3.org/2000/svg" viewBox="0 0 120 120" fill="none">
  <rect width="120" height="120" rx="16" fill="#E3F2FD"/>
  <rect x="25" y="30" width="70" height="65" fill="#1976D2" rx="4"/>
  <rect x="32" y="38" width="12" height="10" fill="#BBDEFB" rx="1"/>
  <rect x="48" y="38" width="12" height="10" fill="#BBDEFB" rx="1"/>
  <rect x="64" y="38" width="12" height="10" fill="#BBDEFB" rx="1"/>
  <rect x="80" y="38" width="8" height="10" fill="#BBDEFB" rx="1"/>
  <rect x="32" y="52" width="12" height="10" fill="#BBDEFB" rx="1"/>
  <rect x="48" y="52" width="12" height="10" fill="#BBDEFB" rx="1"/>
  <rect x="64" y="52" width="12" height="10" fill="#BBDEFB" rx="1"/>
  <rect x="80" y="52" width="8" height="10" fill="#BBDEFB" rx="1"/>
  <rect x="32" y="66" width="12" height="10" fill="#BBDEFB" rx="1"/>
  <rect x="48" y="66" width="12" height="10" fill="#BBDEFB" rx="1"/>
  <rect x="64" y="66" width="12" height="10" fill="#BBDEFB" rx="1"/>
  <rect x="80" y="66" width="8" height="10" fill="#BBDEFB" rx="1"/>
  <rect x="50" y="80" width="20" height="15" fill="#0D47A1" rx="2"/>
</svg>