<svg xmlns="http://www.w3.org/2000/svg" width="181" height="36" viewBox="0 0 181 36" fill="none">
  <g clip-path="url(#clip0_1145_950)">
    <path fill-rule="evenodd" clip-rule="evenodd" d="M112.594 6L108.363 24.048L103.999 6H97.0012L92.6375 24.048L88.4059 6H81L88.8809 35H95.659L100.5 15.7897L105.341 35H112.119L120 6H112.594Z" fill="#0A1C99"/>
    <path fill-rule="evenodd" clip-rule="evenodd" d="M0 35V6L7.36191 10.6091V28.3217H17.5572L20 35H0Z" fill="#0A1C99"/>
    <path fill-rule="evenodd" clip-rule="evenodd" d="M180.234 36C174.04 36 169.001 30.9051 169.001 24.6424L169 12.3236L175.967 6V13.0978H181V19.4189H175.967L175.969 24.6424C175.969 27.0203 177.882 28.9549 180.234 28.9549V36Z" fill="#0A1C99"/>
    <path fill-rule="evenodd" clip-rule="evenodd" d="M153.007 27.8483C153.101 29.3965 154.218 30.8995 156.64 30.8995C158.456 30.8995 159.341 29.9429 159.341 28.9411C159.341 28.1213 158.782 27.4384 157.059 27.0739L154.404 26.4819C149.468 25.4344 147.512 22.7021 147.512 19.5141C147.512 15.3699 151.238 12 156.407 12C163.113 12 165.441 16.0987 165.674 18.7397L159.806 19.7875C159.62 18.2845 158.642 17.0093 156.5 17.0093C155.149 17.0093 153.985 17.7835 153.985 18.9677C153.985 19.924 154.777 20.4704 155.801 20.6525L158.875 21.2445C163.672 22.2008 166 25.0248 166 28.3491C166 32.22 162.973 36 156.78 36C149.515 36 147.187 31.4005 147 28.8957L153.007 27.8483Z" fill="#0A1C99"/>
    <path fill-rule="evenodd" clip-rule="evenodd" d="M29.9956 12L30 35H23.0044L23 12H29.9956Z" fill="#0A1C99"/>
    <path fill-rule="evenodd" clip-rule="evenodd" d="M26 8C23.7942 8 22 6.20584 22 4C22 1.79443 23.7942 0 26 0C28.2056 0 30 1.79443 30 4C30 6.20584 28.2056 8 26 8Z" fill="#E73855"/>
    <path fill-rule="evenodd" clip-rule="evenodd" d="M69.4999 18.5418C67.6148 18.5418 65.9285 19.7956 65.0983 21.8137L64.8648 22.3814H74.1352L73.9017 21.8137C73.0713 19.7956 71.385 18.5418 69.4999 18.5418ZM69.4996 36C63.1585 36 58 30.8412 58 24.5C58 18.1588 63.1585 13 69.4996 13C74.8708 13 79.5965 16.8092 80.7361 22.0573L80.7889 22.2993C80.931 23.0584 81 23.7817 81 24.5V26.4611H64.8901L65.138 27.0349C65.9815 28.9925 67.6531 30.2082 69.4999 30.2082C70.7216 30.2082 71.8642 29.6855 72.7629 28.7257C73.9945 30.1562 75.406 31.8022 76.7708 33.3955C74.7197 35.0784 72.1536 36 69.4996 36Z" fill="#0A1C99"/>
    <path fill-rule="evenodd" clip-rule="evenodd" d="M132.5 18.5418C130.615 18.5418 128.928 19.7956 128.098 21.8137L127.865 22.3814H137.135L136.902 21.8137C136.071 19.7956 134.385 18.5418 132.5 18.5418ZM132.5 36C126.159 36 121 30.8412 121 24.5C121 18.1588 126.159 13 132.5 13C137.871 13 142.596 16.8092 143.736 22.0573L143.789 22.2993C143.931 23.0584 144 23.7817 144 24.5V26.4611H127.891L128.138 27.0349C128.982 28.9925 130.653 30.2082 132.5 30.2082C133.722 30.2082 134.864 29.6855 135.763 28.7257C136.994 30.1562 138.406 31.8022 139.771 33.3955C137.72 35.0784 135.154 36 132.5 36Z" fill="#0A1C99"/>
    <path fill-rule="evenodd" clip-rule="evenodd" d="M41.8586 35L34 12H41.2852L45.5007 26.4694L49.7148 12H57L49.1433 35H41.8586Z" fill="#0A1C99"/>
    <path fill-rule="evenodd" clip-rule="evenodd" d="M0 35V6L7.36191 10.6091V28.3217H17.5572L20 35H0Z" fill="#0A1C99"/>
  </g>
  <defs>
    <clipPath id="clip0_1145_950">
      <rect width="181" height="36" fill="white"/>
    </clipPath>
  </defs>
</svg>
