<?xml version="1.0" encoding="UTF-8"?>
<!-- Generator: Adobe Illustrator 25.2.0, SVG Export Plug-In . SVG Version: 6.00 Build 0)  -->
<svg version="1.1" id="LogoColour" xmlns="http://www.w3.org/2000/svg" xmlns:xlink="http://www.w3.org/1999/xlink" x="0px" y="0px" viewBox="0 0 451.7 156.3" style="enable-background:new 0 0 451.7 156.3;" xml:space="preserve">
<style type="text/css">
	.st0{fill:#333E49;}
	.st1{fill:url(#SVGID_1_);}
	.st2{fill:url(#SVGID_2_);}
	.st3{fill:#6F58A2;}
</style>
<g>
	<g>
		<path class="st0" d="M136.6,50.9v22.8h-9.9V15.4h21.6c11.2,0,18.6,7.6,18.6,17.8c0,10.3-7.4,17.8-18.6,17.8L136.6,50.9L136.6,50.9    z M146.8,42.2c6.3,0,10-3.5,10-9c0-5.6-3.8-9.1-10-9.1h-10.3v18.1C136.5,42.2,146.8,42.2,146.8,42.2z"/>
		<path class="st0" d="M170.2,73.7V15.4h9.5v58.3H170.2z"/>
		<path class="st0" d="M197,50.8l10.3-1.6c2.3-0.3,3-1.5,3-2.9c0-3.4-2.3-6.1-7.6-6.1c-5,0-7.8,3.2-8.2,7.2l-8.7-2    c0.7-6.9,7-13.1,16.9-13.1c12.3,0,17,7,17,15v19.9c0,3.6,0.4,6,0.5,6.4h-8.9c-0.1-0.2-0.4-1.9-0.4-5.1c-1.9,3-5.8,6.3-12.3,6.3    c-8.4,0-13.6-5.8-13.6-12.1C184.9,55.7,190.2,51.8,197,50.8z M210.3,57.1v-1.8l-10.5,1.6c-3,0.5-5.3,2.1-5.3,5.4    c0,2.7,2.1,5.2,5.8,5.2C205.7,67.5,210.3,64.9,210.3,57.1z"/>
		<path class="st0" d="M233,53.7c0,8.1,5.2,12.6,11.2,12.6c6.3,0,9.1-4.4,10-7.4l8.4,3c-1.9,6.3-7.9,13.1-18.4,13.1    c-11.8,0-20.7-9.1-20.7-21.3c0-12.3,9-21.2,20.5-21.2c10.8,0,16.7,6.7,18.4,13.2l-8.6,3.1c-0.9-3.5-3.6-7.5-9.7-7.5    C238.2,41.2,233,45.6,233,53.7z"/>
		<path class="st0" d="M301.6,62.3c-2.1,7-8.5,12.7-18.1,12.7c-10.9,0-20.5-7.9-20.5-21.5c0-12.7,9.4-21.1,19.5-21.1    c12.3,0,19.6,8.1,19.6,20.8c0,1.6-0.2,2.9-0.2,3h-29.3c0.2,6.1,5,10.5,10.9,10.5c5.8,0,8.7-3,10-7L301.6,62.3z M292.5,49.3    c-0.2-4.7-3.3-8.9-9.9-8.9c-6,0-9.5,4.6-9.8,8.9H292.5z"/>
		<path class="st0" d="M311.5,60.6c0.3,3.6,3,6.8,8.1,6.8c4,0,6-2.1,6-4.6c0-2.1-1.5-3.8-4.7-4.4l-5.9-1.3    c-7.1-1.6-10.8-6.2-10.8-11.7c0-7,6.4-12.9,14.7-12.9c11.2,0,14.8,7.2,15.5,11.2l-8.1,2.3c-0.3-2.3-2.1-6-7.4-6    c-3.4,0-5.8,2.1-5.8,4.6c0,2.1,1.6,3.7,4,4.2l6.1,1.2c7.6,1.6,11.5,6.3,11.5,12.2c0,6.1-4.9,12.8-15.1,12.8    c-11.6,0-16-7.6-16.5-12.1L311.5,60.6z"/>
	</g>
	<g>
		<path class="st0" d="M136.3,95.2v5.3h9.3v8.3h-9.3v31.8h-9.6v-31.8h-7v-8.3h7V95c0-9,5.8-14.4,14-14.4c2.4,0,4.4,0.5,5,0.8v8.1    c-0.6-0.2-1.6-0.4-3.5-0.4C139.7,89.1,136.3,90.3,136.3,95.2z"/>
		<path class="st0" d="M186.3,120.5c0,12.3-8.8,21.3-20.8,21.3c-11.9,0-20.7-9-20.7-21.3s8.8-21.2,20.7-21.2    C177.5,99.3,186.3,108.2,186.3,120.5z M176.7,120.5c0-8.3-5.3-12.6-11.2-12.6c-5.8,0-11.2,4.3-11.2,12.6s5.3,12.8,11.2,12.8    C171.4,133.2,176.7,128.9,176.7,120.5z"/>
		<path class="st0" d="M213.7,110c-1.1-0.2-2.1-0.2-3.1-0.2c-7.4,0-10.8,4.3-10.8,11.8v19.1h-9.5v-40.1h9.3v6.4    c1.9-4.4,6.3-6.9,11.6-6.9c1.2,0,2.1,0.2,2.6,0.2v9.7H213.7z"/>
		<path class="st0" d="M242.7,117.8v22.8h-9.9V82.2h21.6c11.2,0,18.6,7.6,18.6,17.8c0,10.3-7.4,17.8-18.6,17.8L242.7,117.8    L242.7,117.8z M253,109.1c6.3,0,10-3.5,10-9c0-5.6-3.8-9.1-10-9.1h-10.3v18.1H253z"/>
		<path class="st0" d="M309.2,129.1c-2.1,7-8.5,12.7-18.1,12.7c-10.9,0-20.5-7.9-20.5-21.5c0-12.7,9.4-21.1,19.5-21.1    c12.3,0,19.6,8.1,19.6,20.8c0,1.6-0.2,2.9-0.2,3h-29.3c0.2,6.1,5,10.5,10.9,10.5c5.8,0,8.7-3,10-7L309.2,129.1z M300.1,116.1    c-0.2-4.7-3.3-8.9-9.9-8.9c-6,0-9.5,4.6-9.8,8.9H300.1z"/>
		<path class="st0" d="M354,120.5c0,12.3-8.8,21.3-20.8,21.3c-11.9,0-20.7-9-20.7-21.3s8.8-21.2,20.7-21.2    C345.2,99.3,354,108.2,354,120.5z M344.3,120.5c0-8.3-5.3-12.6-11.2-12.6c-5.8,0-11.2,4.3-11.2,12.6s5.3,12.8,11.2,12.8    C339.1,133.2,344.3,128.9,344.3,120.5z"/>
		<path class="st0" d="M356.6,156.2v-55.7h9.2v5.4c2-3.5,6.6-6.3,12.8-6.3c11.9,0,18.5,9.1,18.5,20.9c0,12-7.3,21.1-18.8,21.1    c-5.8,0-10.1-2.5-12.2-5.5v20.2h-9.5V156.2z M376.8,108.1c-6.3,0-10.8,4.9-10.8,12.4c0,7.7,4.5,12.6,10.8,12.6s10.8-4.9,10.8-12.6    C387.5,113,383.2,108.1,376.8,108.1z"/>
		<path class="st0" d="M400.1,140.6V82.2h9.5v58.4L400.1,140.6L400.1,140.6z"/>
		<path class="st0" d="M451.2,129.1c-2.1,7-8.5,12.7-18.1,12.7c-10.9,0-20.5-7.9-20.5-21.5c0-12.7,9.4-21.1,19.5-21.1    c12.3,0,19.6,8.1,19.6,20.8c0,1.6-0.2,2.9-0.2,3h-29.3c0.2,6.1,5,10.5,10.9,10.5c5.8,0,8.7-3,10-7L451.2,129.1z M442,116.1    c-0.2-4.7-3.3-8.9-9.9-8.9c-6,0-9.5,4.6-9.8,8.9H442z"/>
	</g>
	<g>
		
			<linearGradient id="SVGID_1_" gradientUnits="userSpaceOnUse" x1="90.3289" y1="117.4039" x2="42.4543" y2="69.5294" gradientTransform="matrix(1 0 0 -1 0 163.75)">
			<stop offset="0.2" style="stop-color:#98D6F1"/>
			<stop offset="0.9" style="stop-color:#6F58A2"/>
		</linearGradient>
		<path class="st1" d="M84.1,64.7L84.1,64.7c0,2.6-1,5.2-3,7.2l-17,17c-4,4-10.5,4-14.4,0c-4-4-4-10.5,0-14.4l31.9-31.9    c1.3-1.3,1.6-3.1,0.9-4.7l0,0c1,1.1,1.6,2.6,1.6,4.2V64.7"/>
		
			<linearGradient id="SVGID_2_" gradientUnits="userSpaceOnUse" x1="-13.7748" y1="110.5595" x2="82.6227" y2="14.1619" gradientTransform="matrix(1 0 0 -1 0 163.75)">
			<stop offset="0.2" style="stop-color:#98D6F1"/>
			<stop offset="0.9" style="stop-color:#6F58A2"/>
		</linearGradient>
		<path class="st2" d="M56.9,140.6h12.9l0,0c0.6,0,1.1-0.5,1.1-1.1l0,0v-12.9c0-0.3-0.1-0.6-0.3-0.8l0,0L4.8,60    C1.9,57.2,0.3,53.6,0,49.9v29.9c0,2.8,1.1,5.4,3,7.2l0,0l53.2,53.2l0,0C56.3,140.5,56.6,140.6,56.9,140.6z"/>
		<path class="st3" d="M82.6,37.8L46,1.3l0,0c-1.7-1.7-4.4-1.7-6.1,0l0,0L1.5,39.6l0,0c-1,1-1.5,2.4-1.5,3.7l0,0v6.6    c0.4,3.7,2,7.2,4.8,10.1l15.6,15.6v-26L43,27l27.1,27.1l11.6-11.6C82.9,41.3,83.2,39.4,82.6,37.8z"/>
	</g>
</g>
</svg>