<?xml version="1.0" encoding="UTF-8"?>
<svg id="Layer_1" data-name="Layer 1" xmlns="http://www.w3.org/2000/svg" viewBox="0 0 366.51 78.63">
  <defs>
    <style>
      .cls-1 {
        fill: #17253f;
      }

      .cls-2 {
        fill: #0b2340;
      }

      .cls-3 {
        fill: #fff;
      }
    </style>
  </defs>
  <g>
    <path class="cls-2" d="M41.01,0H13.89c11.58,0,20.97,9.39,20.97,20.97v27.11h5.67c13.48,0,24.77-11.03,24.51-24.51-.25-13.06-10.91-23.57-24.03-23.57"/>
    <path class="cls-2" d="M13.08,26.33V0H0v60.81c0,9.77,8,18,17.77,17.82,9.47-.18,17.09-7.91,17.09-17.43v-13.12h-.04c-12.01,0-21.75-9.73-21.75-21.74"/>
    <path class="cls-1" d="M13.89,0h-.82v26.33c0,12.01,9.74,21.75,21.75,21.75h.04v-27.11C34.86,9.39,25.47,0,13.89,0"/>
    <path class="cls-3" d="M13.89,0h-.82v26.33c0,12.01,9.74,21.75,21.75,21.75h.04v-27.11C34.86,9.39,25.47,0,13.89,0"/>
  </g>
  <g>
    <g>
      <path class="cls-2" d="M103.48,51.83v-25.14h12.59c5.65,0,8.74,3.81,8.74,8.37s-3.09,8.25-8.74,8.25h-6.11v8.52h-6.48ZM115.2,32.15h-5.24v5.65h5.24c1.73,0,3.02-1.09,3.02-2.79s-1.28-2.86-3.02-2.86Z"/>
      <path class="cls-2" d="M135.33,33.17c5.39,0,9.31,3.96,9.31,10.14v1.24h-12.97c.34,1.7,1.92,3.24,4.64,3.24,1.62,0,3.43-.64,4.45-1.54l2.45,3.62c-1.81,1.62-4.82,2.41-7.61,2.41-5.62,0-9.95-3.66-9.95-9.57,0-5.28,3.99-9.54,9.69-9.54ZM131.6,40.78h7.5c-.15-1.28-1.09-3.13-3.77-3.13-2.53,0-3.5,1.81-3.73,3.13Z"/>
      <path class="cls-2" d="M148.51,46.93v-8.25h-3.02v-5.05h3.02v-4.97h5.77v4.97h3.69v5.05h-3.69v6.63c0,1.06.6,1.85,1.62,1.85.64,0,1.28-.23,1.47-.45l1.13,4.37c-.72.68-2.15,1.21-4.3,1.21-3.69,0-5.69-1.85-5.69-5.35Z"/>
      <path class="cls-2" d="M169.15,33.17c5.39,0,9.31,3.96,9.31,10.14v1.24h-12.96c.34,1.7,1.92,3.24,4.64,3.24,1.62,0,3.43-.64,4.45-1.54l2.45,3.62c-1.81,1.62-4.82,2.41-7.61,2.41-5.62,0-9.95-3.66-9.95-9.57,0-5.28,3.99-9.54,9.69-9.54ZM165.42,40.78h7.5c-.15-1.28-1.09-3.13-3.77-3.13-2.53,0-3.51,1.81-3.73,3.13Z"/>
      <path class="cls-2" d="M181.12,51.83v-18.2h5.8v2.3c1.21-1.47,3.51-2.75,5.69-2.75v5.62c-.34-.11-.83-.19-1.43-.19-1.51,0-3.51.64-4.26,1.7v11.53h-5.8Z"/>
      <path class="cls-2" d="M202.59,45.49c1.36,1.21,4.26,2.41,6.41,2.41,1.73,0,2.45-.57,2.45-1.36,0-.94-1.24-1.28-3.13-1.58-3.09-.53-7.46-1.17-7.46-5.8,0-3.2,2.75-5.99,7.8-5.99,3.05,0,5.65.98,7.61,2.41l-2.22,3.84c-1.09-1.06-3.17-2-5.35-2-1.36,0-2.3.45-2.3,1.24s.98,1.13,2.9,1.47c3.09.53,7.69,1.28,7.69,6.11,0,3.47-3.05,6.03-8.29,6.03-3.24,0-6.6-1.09-8.52-2.79l2.41-4Z"/>
      <path class="cls-2" d="M246.68,51.83v-10.1h-10.44v10.1h-6.48v-25.14h6.48v9.38h10.44v-9.38h6.48v25.14h-6.48Z"/>
      <path class="cls-2" d="M256.59,42.7c0-5.12,3.73-9.54,9.91-9.54s9.95,4.41,9.95,9.54-3.69,9.57-9.95,9.57-9.91-4.45-9.91-9.57ZM270.5,42.7c0-2.41-1.43-4.41-3.99-4.41s-3.92,2-3.92,4.41,1.39,4.45,3.92,4.45,3.99-2,3.99-4.45Z"/>
      <path class="cls-2" d="M280.39,45.49c1.36,1.21,4.26,2.41,6.41,2.41,1.73,0,2.45-.57,2.45-1.36,0-.94-1.24-1.28-3.13-1.58-3.09-.53-7.46-1.17-7.46-5.8,0-3.2,2.75-5.99,7.8-5.99,3.05,0,5.65.98,7.61,2.41l-2.22,3.84c-1.09-1.06-3.17-2-5.35-2-1.36,0-2.3.45-2.3,1.24s.98,1.13,2.9,1.47c3.09.53,7.69,1.28,7.69,6.11,0,3.47-3.05,6.03-8.29,6.03-3.24,0-6.6-1.09-8.52-2.79l2.41-4Z"/>
      <path class="cls-2" d="M303.68,58.76h-5.8v-25.14h5.8v2.11c1.43-1.73,3.32-2.56,5.39-2.56,4.56,0,7.99,3.39,7.99,9.54s-3.43,9.57-7.99,9.57c-2.04,0-3.88-.79-5.39-2.6v9.08ZM307.15,38.29c-1.24,0-2.75.68-3.47,1.66v5.54c.72.94,2.22,1.66,3.47,1.66,2.26,0,4-1.7,4-4.45s-1.73-4.41-4-4.41Z"/>
      <path class="cls-2" d="M319.87,28.01c0-1.85,1.47-3.32,3.32-3.32s3.32,1.47,3.32,3.32-1.47,3.32-3.32,3.32-3.32-1.47-3.32-3.32ZM320.28,51.83v-18.2h5.8v18.2h-5.8Z"/>
      <path class="cls-2" d="M339.03,33.17c3.92,0,6.37,1.73,7.46,3.35l-3.77,3.5c-.72-1.05-1.88-1.73-3.43-1.73-2.41,0-4.26,1.66-4.26,4.41s1.85,4.45,4.26,4.45c1.54,0,2.71-.75,3.43-1.77l3.77,3.54c-1.09,1.58-3.54,3.35-7.46,3.35-5.69,0-9.95-3.84-9.95-9.57s4.26-9.54,9.95-9.54Z"/>
      <path class="cls-2" d="M357.2,33.17c5.39,0,9.31,3.96,9.31,10.14v1.24h-12.96c.34,1.7,1.92,3.24,4.64,3.24,1.62,0,3.43-.64,4.45-1.54l2.45,3.62c-1.81,1.62-4.82,2.41-7.61,2.41-5.62,0-9.95-3.66-9.95-9.57,0-5.28,4-9.54,9.69-9.54ZM353.47,40.78h7.5c-.15-1.28-1.09-3.13-3.77-3.13-2.53,0-3.51,1.81-3.73,3.13Z"/>
    </g>
    <g>
      <path class="cls-2" d="M81.28,36.03c.98.98,2.5,1.8,4.36,1.8,1.21,0,1.95-.51,1.95-1.17,0-.78-.88-1.08-2.33-1.39-2.25-.45-5.41-1.02-5.41-4.26,0-2.29,1.95-4.28,5.45-4.28,2.19,0,4.1.66,5.55,1.9l-1.93,2.52c-1.15-.94-2.64-1.41-3.85-1.41s-1.62.47-1.62,1.06c0,.72.84.96,2.36,1.25,2.25.47,5.36,1.13,5.36,4.22,0,2.74-2.03,4.57-5.69,4.57-2.76,0-4.69-.86-6.06-2.17l1.86-2.64Z"/>
      <path class="cls-2" d="M93.01,37.93v-4.48h-1.64v-2.74h1.64v-2.7h3.13v2.7h2.01v2.74h-2.01v3.6c0,.57.33,1,.88,1,.35,0,.7-.12.8-.25l.61,2.38c-.39.37-1.17.66-2.33.66-2.01,0-3.09-1-3.09-2.91Z"/>
    </g>
    <path class="cls-2" d="M194.76,26.6h-.18v5.75c0,2.62,2.13,4.75,4.75,4.75h0v-5.92c0-2.53-2.05-4.58-4.58-4.58"/>
  </g>
</svg>